PathFileType	4	(X/Y/Z)	C:\Users\Owen\Repositories\CapacitiveSensingKinematics\CSOptimalControl\OutputData\FilteredIMUAccels.trc
DataRate	CameraRate	NumFrames	NumMarkers	Units	OrigDataRate	OrigDataStartFrame	OrigNumFrames
100	100	13	8	m	100	4410	7057
Frame#	Time	/bodyset/torso/torso_imu_offset			/bodyset/pelvis/pelvis_imu_offset			/bodyset/tibia_r/tibia_r_imu_offset			/bodyset/femur_r/femur_r_imu_offset			/bodyset/tibia_l/tibia_l_imu_offset			/bodyset/femur_l/femur_l_imu_offset			/bodyset/toes_r/toes_r_imu_offset			/bodyset/toes_l/toes_l_imu_offset			
		X1	Y1	Z1	X2	Y2	Z2	X3	Y3	Z3	X4	Y4	Z4	X5	Y5	Z5	X6	Y6	Z6	X7	Y7	Z7	X8	Y8	Z8	

4411	44.1	8.531023838358854	0.109980248739731	7.649783144590331	9.589199718741183	0.8773406480845419	2.188667124195021	9.776798936696512	1.015500852793993	0.5429379772303169	9.170913106719031	-1.693151078358348	-0.5724154761463569	14.20702044663439	-0.4927107099070576	1.03528534732633	9.103049489983054	8.630812275554023	0.5800674344038131	4.945917477770215	0.2335833254355744	8.770817354211895	19.12629919121906	-1.143196002943911	4.748810096106347	
4412	44.11	8.559014351689893	0.1894837737527594	7.653432749369351	9.666087230928079	0.8250493036294255	2.278536322667509	9.734567482127503	1.040696812191246	0.4038691935709675	9.064734141155743	-1.918561728566535	-0.8117233023233783	13.43981212201768	-0.6668720077281401	0.335051769905294	9.064482630123594	9.27368844389089	0.3339626838337533	4.98389837609693	0.1317311166479315	8.75673450298274	20.44034116842411	-3.051758136443856	1.916229579131353	
4413	44.12	8.59913135707575	0.2645118042741918	7.657071735253628	9.689818131666277	0.7515117213550362	2.324936601989082	9.722380920609371	1.194093755614974	0.3142025398086409	8.999783254750469	-2.102171552790686	-1.039671178012537	12.57943535886212	-0.03771187796225474	-0.5291522123482506	9.069801708811992	9.622720246182167	0.03388317949540449	5.021103121113133	0.05279477811890989	8.758060995902303	21.52107729132319	-4.675161985852955	-0.8190137807416834	
4414	44.13	8.639067521321969	0.3247592356777317	7.658038778859027	9.655564573127442	0.7144193411869828	2.289951412934951	9.736177760749612	1.40884617467	0.26864940062637	8.987177237517443	-2.189709969148526	-1.226875820794073	11.80139640190458	0.9535237627715419	-1.404063629217298	9.037040933039398	9.542436524929261	-0.2420031348499977	5.057360314599156	-0.009316438733628991	8.772993402903177	21.77224076350519	-5.518865005564503	-2.8971431090001	
4415	44.14	8.664396315324236	0.3599700146804285	7.653173266159699	9.577412973826558	0.7614131185447557	2.156263577635094	9.77213769787395	1.618256994529344	0.2588370590693096	9.030155810245635	-2.147078866688076	-1.345547283222233	11.14946153959535	1.655364005581708	-2.103228567145457	8.858374091402204	8.957756671635654	-0.4357456735250027	5.090978553054846	-0.06337575070572128	8.799679942271665	20.60833376478919	-5.231265315414386	-3.622574844590563	
4416	44.15	8.671526031741003	0.362659390585736	7.641960924298893	9.491263136424003	0.9082150737308893	1.945347332727201	9.828880942455053	1.794829097757381	0.2918046788677339	9.132434145924519	-1.968273137767847	-1.367620553522402	10.54542482019178	1.611958555036139	-2.449679458882424	8.496081747790239	7.878116918221352	-0.546334679488181	5.114728612495043	-0.1177960593285456	8.840733250889834	17.63165577857978	-3.843300717205403	-2.429209054963654	
4417	44.16	8.675657009711868	0.3301058072968773	7.6273080043877	9.452539027265258	1.130584019074332	1.721423909425971	9.908750670384523	1.962197022502029	0.3891637820212906	9.30226237661501	-1.687418642610236	-1.277475559910594	9.929889306407071	0.8329703977679624	-2.365041126991817	8.063591279714506	6.405859583514706	-0.6103675239666603	5.119617109672118	-0.1760470896120968	8.901947902518655	12.82875550330916	-1.798193326306315	0.7896473009876639	
4418	44.17	8.711522279778995	0.2676592683565448	7.616317780460039	9.521975839551923	1.364468725709022	1.573046541183073	10.02170907558191	2.160792748454274	0.5729184666710329	9.540352617109791	-1.383868241186826	-1.090104146900298	9.37259251914697	-0.1986446452870968	-1.909745920945644	7.822091512789958	4.725771358715664	-0.6464165392326335	5.105929100752932	-0.2309003267322582	8.984617409092555	6.773654090529431	0.2128710910405095	5.459592927957572	
4419	44.18	8.827028642407841	0.1931094763381739	7.620674069147397	9.745070541169477	1.509462105003571	1.579126161603467	10.18291610350008	2.39530899681321	0.854180152109153	9.823967229300719	-1.157771105360038	-0.851495927012089	9.059900599388328	-0.7637918899942711	-1.173987181175133	8.084520192606353	3.069895505536009	-0.6340649513840502	5.086272173550268	-0.2615525706464032	9.081575282236596	0.728507694914267	1.4620000781595	10.36130471581992	
4420	44.19	9.067384981959302	0.1355354472249618	7.654284453157077	10.13616971765138	1.443283084487873	1.778388735434516	10.39917724949506	2.613506787355672	1.231234107658141	10.1095631360222	-1.082797774003571	-0.6156168451121768	9.235477280201206	-0.2410918013982334	-0.1465562717636383	9.069996484313457	1.663571738304391	-0.5464680393882357	5.070372978608383	-0.2466056535740351	9.183568762283379	-3.60933500937166	1.459926413408566	14.0671110404027	
4421	44.2	9.450508289945796	0.1241563966775691	7.730024629106918	10.67009156380354	1.058797461240967	2.157355782004854	10.65787678729044	2.735661581122953	1.689102976279929	10.35375291986743	-1.170805952614958	-0.4188312604642129	10.10471076227817	1.592623724590292	1.275013532400145	10.76517618080298	0.6670663927598519	-0.382520333063868	5.052292108754363	-0.1887566602572446	9.284913143556299	-4.878607924202004	0.2536038728875908	15.7984867555545	
4422	44.21	9.947774379817899	0.171981023324937	7.855463108422398	11.28273176194639	0.3170630893252769	2.658479510629485	10.93254288811579	2.705964472004805	2.192226255507687	10.53221660758206	-1.368796195487363	-0.2760388112400388	11.62681711524905	4.343430891052241	3.121169901794645	12.86821699251836	0.1341328533993252	-0.1546863809167697	5.02078818227674	-0.1172647221790872	9.380336817292671	-2.899927527368042	-1.489205384569974	16.05808229566565	
4423	44.22	10.49059258775774	0.266497272845614	8.027195224243599	11.88359117791327	-0.7135470977294091	3.201095243608992	11.20198051679686	2.524870138458438	2.681831280096466	10.64528239721625	-1.584350076712749	-0.1941041675021833	13.35421168103562	7.019990545455808	5.157262060627825	14.87675126514999	0.01956079310691206	0.1393897382702356	4.975130147089269	-0.06747091664785612	9.461782721360704	1.196877877753076	-2.803587757702891	16.03272463623363	
